<svg viewBox="0 0 17 21" fill="none" xmlns="http://www.w3.org/2000/svg">
  <path d="M15.1104 17.7186C15.5263 17.1035 15.8793 16.4483 16.1643 15.7629C16.2864 15.4628 16.4018 15.1512 16.5103 14.8253C16.0049 14.6056 15.5447 14.2941 15.1532 13.9067C14.2615 13.0532 13.8083 11.9795 13.7947 10.689C13.7798 9.03203 14.5092 7.74019 15.9838 6.81823C15.16 5.60971 13.9209 4.93839 12.272 4.80087C11.664 4.74803 10.9209 4.88352 10.0408 5.21071C9.10982 5.56297 8.56086 5.7391 8.39868 5.7391C8.18221 5.7391 7.68821 5.58803 6.91804 5.28997C6.1465 4.99258 5.52493 4.84152 5.05129 4.84152C4.19758 4.852 3.36297 5.09514 2.63761 5.54468C1.89389 5.9999 1.29946 6.6211 0.852964 7.40826C0.284321 8.38781 0 9.55703 0 10.9125C0 12.096 0.210357 13.3187 0.631071 14.5808C1.02261 15.7493 1.52339 16.7749 2.13207 17.659C2.70004 18.4868 3.17368 19.0707 3.55164 19.4115C4.14539 19.9812 4.73982 20.2521 5.33629 20.2257C5.7285 20.2122 6.2415 20.0733 6.87732 19.8077C7.51382 19.5429 8.10757 19.4115 8.66197 19.4115C9.19057 19.4115 9.76804 19.5429 10.3971 19.8077C11.0234 20.0733 11.5622 20.2047 12.0087 20.2047C12.6303 20.1898 13.2111 19.9263 13.7533 19.4121C14.1028 19.0985 14.5567 18.5342 15.1104 17.7186Z" />
  <path d="M11.3104 3.23536C12.0243 2.36081 12.3826 1.41648 12.3826 0.404419C12.3826 0.270968 12.3765 0.135484 12.3615 0C11.8648 0.0264194 11.3355 0.182226 10.7771 0.463355C10.2166 0.748549 9.75447 1.10623 9.39143 1.53639C8.664 2.38655 8.25414 3.42571 8.25414 4.39713C8.2543 4.52505 8.262 4.65285 8.27722 4.77987C9.40704 4.87471 10.4486 4.27452 11.3104 3.23536Z" />
</svg>
