<svg viewBox="0 0 21 21" fill="none" xmlns="http://www.w3.org/2000/svg">
  <path d="M10.3467 0.4375C4.78984 0.4375 0.28418 5.05996 0.28418 10.7561C0.28418 15.3156 3.16816 19.1789 7.16621 20.5445C7.22229 20.5567 7.27953 20.5627 7.33691 20.5625C7.70977 20.5625 7.85352 20.2885 7.85352 20.0504C7.85352 19.8033 7.84453 19.1564 7.84004 18.2939C7.50719 18.372 7.16667 18.4127 6.8248 18.4152C4.88867 18.4152 4.44844 16.9104 4.44844 16.9104C3.99023 15.7199 3.32988 15.401 3.32988 15.401C2.45391 14.7855 3.32539 14.7676 3.39277 14.7676H3.39727C4.40801 14.8574 4.93809 15.8367 4.93809 15.8367C5.44121 16.7172 6.11504 16.9643 6.71699 16.9643C7.11502 16.9563 7.50688 16.8645 7.86699 16.6947C7.95684 16.0299 8.21738 15.5762 8.50488 15.3156C6.27227 15.0551 3.92285 14.1701 3.92285 10.217C3.92285 9.08945 4.31367 8.16855 4.95605 7.4498C4.85273 7.18926 4.50684 6.13809 5.05488 4.71855C5.1284 4.70096 5.20395 4.69341 5.27949 4.69609C5.64336 4.69609 6.46543 4.83535 7.82207 5.77871C9.4705 5.3175 11.2139 5.3175 12.8623 5.77871C14.2189 4.83535 15.041 4.69609 15.4049 4.69609C15.4804 4.69341 15.556 4.70096 15.6295 4.71855C16.1775 6.13809 15.8316 7.18926 15.7283 7.4498C16.3707 8.17305 16.7615 9.09395 16.7615 10.217C16.7615 14.1791 14.4076 15.0506 12.166 15.3066C12.5254 15.6256 12.8488 16.2545 12.8488 17.2158C12.8488 18.5949 12.8354 19.709 12.8354 20.0459C12.8354 20.2885 12.9746 20.5625 13.3475 20.5625C13.4078 20.5628 13.468 20.5567 13.5271 20.5445C17.5297 19.1789 20.4092 15.3111 20.4092 10.7561C20.4092 5.05996 15.9035 0.4375 10.3467 0.4375Z" />
</svg>
