<svg viewBox="0 0 13 16" fill="none" xmlns="http://www.w3.org/2000/svg">
  <path d="M1.33965 10.8881C0.467968 11.8269 -0.287238 13.2702 0.265981 13.7938C1.04651 14.5326 5.12878 13.1976 8.66378 9.72406C12.1988 6.25055 13.6737 2.42175 12.364 1.65844C11.7602 1.30656 10.331 2.04535 9.48477 2.69745L9.7937 2.91176C10.5986 2.51666 11.9059 2.16248 10.5118 4.12065C10.5052 4.12999 10.4985 4.13934 10.4918 4.14871C8.99578 2.71921 6.749 2.20462 4.69853 3.01531C1.8892 4.12601 0.512202 7.30381 1.6229 10.1131C1.88429 10.7743 2.26016 11.3561 2.71876 11.8448C0.538289 13.1657 1.18011 11.8751 1.5359 11.2447L1.33965 10.8881Z" />
  <path d="M12.1809 8.12511C12.171 10.2949 10.8619 12.3422 8.72072 13.1888C7.99227 13.4768 7.23905 13.5975 6.50351 13.5694C7.35518 12.3391 8.45545 11.1024 9.76418 9.9563C10.5545 9.26422 11.3675 8.65184 12.1809 8.12511Z" />
</svg>
