<svg viewBox="0 0 103 23" fill="none" xmlns="http://www.w3.org/2000/svg">
  <path d="M2.0617 15.9695C0.771414 17.3591 -0.34646 19.4956 0.472429 20.2707C1.62779 21.3642 7.67046 19.3881 12.9031 14.2465C18.1357 9.10491 20.3189 3.43743 18.3802 2.30755C17.4864 1.78669 15.371 2.88027 14.1183 3.84552L14.5756 4.16275C15.767 3.57791 17.7021 3.05365 15.6386 5.95218C15.6288 5.966 15.6189 5.97984 15.609 5.99371C13.3945 3.87774 10.0688 3.11603 7.03359 4.31602C2.87517 5.96011 0.836892 10.664 2.48098 14.8224C2.86789 15.801 3.42426 16.6622 4.1031 17.3856C0.875507 19.3409 1.82555 17.4305 2.35219 16.4973L2.0617 15.9695Z" />
  <path d="M18.1092 11.8797C18.0946 15.0914 16.1568 18.1219 12.9873 19.375C11.9091 19.8013 10.7941 19.98 9.70537 19.9384C10.966 18.1173 12.5947 16.2867 14.5319 14.5903C15.7017 13.5658 16.9051 12.6594 18.1092 11.8797Z" />
  <path d="M28.4864 8.18791L27.2764 17.9999H30.4444L31.6544 8.18791H28.4864ZM28.6404 4.00791C28.6404 5.04191 29.4544 5.85591 30.4884 5.85591C31.5224 5.85591 32.3364 5.04191 32.3364 4.00791C32.3364 2.97391 31.5224 2.15991 30.4884 2.15991C29.4544 2.15991 28.6404 2.97391 28.6404 4.00791Z" />
  <path d="M34.3684 8.18791L33.1584 17.9999H36.3264L36.8984 13.1599C36.9644 12.6319 37.0964 11.6859 37.6684 11.0919C38.0644 10.6959 38.5484 10.5639 39.0984 10.5639C39.4284 10.5639 39.9124 10.6299 40.2644 10.9819C40.5944 11.3339 40.6604 11.7959 40.6604 12.1699C40.6604 12.3239 40.6604 12.7419 40.5284 13.7539L40.0004 17.9999H43.1684L43.7624 12.9619C43.8944 11.9059 43.9164 11.4219 43.9164 11.0919C43.9164 10.4979 43.8504 9.50791 43.0804 8.75991C42.3324 8.03391 41.3424 7.92391 40.5284 7.92391C39.8464 7.92391 39.2964 7.96791 38.5924 8.34191C38.1744 8.56191 37.7564 8.86991 37.3824 9.26591L37.5364 8.18791H34.3684Z" />
  <path d="M53.8249 8.84791C52.4829 7.92391 51.3169 7.85791 50.5909 7.85791C49.8869 7.85791 48.3689 7.92391 47.3569 8.91391C46.8289 9.44191 46.4329 10.2559 46.4329 11.2019C46.4329 12.1479 46.8509 12.6979 47.0929 12.9619C47.5549 13.4239 48.2149 13.6879 48.7429 13.8419L49.4469 14.0619C49.7109 14.1499 50.0189 14.2159 50.2169 14.3479C50.3709 14.4579 50.5249 14.6339 50.5249 14.9639C50.5249 15.2719 50.3929 15.4479 50.1289 15.6019C49.8649 15.7559 49.5569 15.8219 49.1609 15.8219C48.4789 15.8219 47.9069 15.5579 47.7969 15.5139C47.4009 15.3379 46.9389 15.0299 46.5869 14.6999L45.2449 16.8339C45.7069 17.2519 46.2129 17.6039 46.7629 17.8459C47.6429 18.2419 48.4789 18.3299 49.3149 18.3299C50.1729 18.3299 51.7129 18.1979 52.7689 17.0979C53.1869 16.6799 53.6929 15.8879 53.6929 14.6779C53.6929 13.9079 53.4729 13.3139 52.9669 12.8079C52.4169 12.2359 51.7569 12.0159 51.2729 11.8839L50.5469 11.6859C49.9969 11.5319 49.8429 11.4659 49.7769 11.4219C49.5349 11.2679 49.4689 11.0699 49.4689 10.8939C49.4689 10.7179 49.5569 10.5199 49.6889 10.4099C49.9089 10.2119 50.3269 10.1459 50.6349 10.1459C51.4049 10.1459 52.0429 10.4759 52.4829 10.8059L53.8249 8.84791Z" />
  <path d="M61.2959 10.7399L61.6039 8.18791H59.6679L60.0639 5.01991H56.8959L56.4999 8.18791H55.3559L55.0479 10.7399H56.1919L55.2899 17.9999H58.4579L59.3599 10.7399H61.2959Z" />
  <path d="M70.2901 9.37591C69.8501 8.75991 69.3221 8.40791 68.9481 8.23191C68.3101 7.92391 67.6061 7.85791 67.0341 7.85791C65.6701 7.85791 64.4381 8.25391 63.4261 9.28791C62.4801 10.2559 61.8421 11.7079 61.8421 13.5119C61.8421 15.2059 62.4361 16.3499 63.1621 17.1199C64.0201 18.0219 64.9881 18.3299 66.1981 18.3299C66.5721 18.3299 67.3421 18.2859 68.0241 17.9779C68.5521 17.7359 69.0581 17.2959 69.4101 16.8779L69.1681 17.9999H72.3361L73.5462 8.18791H70.3781L70.2901 9.37591ZM67.7161 10.5859C68.5741 10.5859 69.0802 10.8719 69.3661 11.1359C69.7842 11.5099 70.0481 12.1259 70.0481 12.8299C70.0481 13.5559 69.7841 14.3919 69.2121 14.9419C68.8821 15.2499 68.3101 15.6019 67.4081 15.6019C66.7701 15.6019 66.1981 15.4259 65.7361 14.9419C65.4281 14.6119 65.0981 14.0839 65.0981 13.2699C65.0981 12.4559 65.4061 11.7519 65.8461 11.3119C66.3301 10.8279 66.9241 10.5859 67.7161 10.5859Z" />
  <path d="M81.0186 10.7399L81.3266 8.18791H79.3906L79.7866 5.01991H76.6186L76.2226 8.18791H75.0786L74.7706 10.7399H75.9146L75.0126 17.9999H78.1806L79.0826 10.7399H81.0186Z" />
  <path d="M89.5508 8.18791L88.9348 13.3359C88.8028 14.5019 88.4288 14.9639 88.2968 15.0959C87.9448 15.4699 87.3508 15.6459 86.8448 15.6459C86.3828 15.6459 85.8328 15.4919 85.5468 15.2279C85.3268 15.0299 85.1288 14.6779 85.1288 14.1499C85.1288 13.9079 85.1728 13.6879 85.2388 13.0719L85.8108 8.18791H82.6428L82.0488 13.1819C82.0048 13.4899 81.9388 14.1719 81.9388 14.5679C81.9388 15.6019 82.3348 16.5919 82.9948 17.2079C84.0948 18.2639 85.8328 18.3299 86.8228 18.3299C87.9448 18.3299 89.5068 18.1979 90.6728 17.0759C91.7728 16.0199 91.9708 14.6559 92.1028 13.4899L92.7188 8.18791H89.5508Z" />
  <path d="M102.208 8.84791C100.866 7.92391 99.6997 7.85791 98.9737 7.85791C98.2697 7.85791 96.7517 7.92391 95.7397 8.91391C95.2117 9.44191 94.8157 10.2559 94.8157 11.2019C94.8157 12.1479 95.2337 12.6979 95.4757 12.9619C95.9377 13.4239 96.5977 13.6879 97.1257 13.8419L97.8297 14.0619C98.0937 14.1499 98.4017 14.2159 98.5997 14.3479C98.7537 14.4579 98.9077 14.6339 98.9077 14.9639C98.9077 15.2719 98.7757 15.4479 98.5117 15.6019C98.2477 15.7559 97.9397 15.8219 97.5437 15.8219C96.8617 15.8219 96.2897 15.5579 96.1797 15.5139C95.7837 15.3379 95.3217 15.0299 94.9697 14.6999L93.6277 16.8339C94.0897 17.2519 94.5957 17.6039 95.1457 17.8459C96.0257 18.2419 96.8617 18.3299 97.6977 18.3299C98.5557 18.3299 100.096 18.1979 101.152 17.0979C101.57 16.6799 102.076 15.8879 102.076 14.6779C102.076 13.9079 101.856 13.3139 101.35 12.8079C100.8 12.2359 100.14 12.0159 99.6557 11.8839L98.9297 11.6859C98.3797 11.5319 98.2257 11.4659 98.1597 11.4219C97.9177 11.2679 97.8517 11.0699 97.8517 10.8939C97.8517 10.7179 97.9397 10.5199 98.0717 10.4099C98.2917 10.2119 98.7097 10.1459 99.0177 10.1459C99.7877 10.1459 100.426 10.4759 100.866 10.8059L102.208 8.84791Z" />
</svg>
