<svg viewBox="0 0 16 20" fill="none" xmlns="http://www.w3.org/2000/svg">
  <path d="M6.00523 18.6039C6.42731 18.3919 7.03055 18.2855 7.8143 18.2855V18.2841C8.29676 18.2841 9.08053 18.3424 10.0455 18.4603C10.2266 18.8308 10.5279 19.0733 11.0104 19.2007L11.4324 19.2495C11.674 19.2495 11.9149 19.1953 12.0961 19.0855C12.3378 18.9439 12.5608 18.7726 12.7597 18.5754L13.3623 18.0586C13.6447 17.8149 13.9473 17.5955 14.2668 17.4028C14.6292 17.2314 14.8701 17.1102 14.9909 17.0492C15.1714 16.995 15.2922 16.9097 15.4129 16.7884C15.5337 16.6787 15.5941 16.5269 15.5941 16.321C15.5941 16.1869 15.5337 16.0595 15.4129 15.9382C15.3037 15.8393 15.1456 15.7601 15.0269 15.7011L14.9909 15.6829C14.8341 15.6194 14.6909 15.5268 14.5688 15.4099C14.3876 15.3001 14.3272 15.1728 14.2668 15.0393L14.2065 14.5902C14.1467 14.3043 14.0863 14.1228 14.026 14.0374C13.9656 13.952 13.9052 13.9033 13.7844 13.9033C13.9053 13.5076 13.9664 13.0962 13.9655 12.6826C13.9655 11.8385 13.7844 11.0493 13.4831 10.4417C13.2422 9.77372 12.8195 9.10579 12.2773 8.49882C12.1803 8.35428 12.081 8.21132 11.9794 8.07001C11.845 7.88034 11.7188 7.70421 11.6136 7.52672C11.4324 7.28421 11.3123 7.04102 11.1916 6.7985C11.0708 6.6156 11.0104 6.37308 10.95 6.12989C10.927 6.00941 10.9088 5.88805 10.8957 5.76611C10.878 5.62521 10.8631 5.50395 10.8299 5.40166C10.8299 5.32579 10.819 5.24043 10.8068 5.1395C10.7833 4.96455 10.7709 4.7883 10.7695 4.61179C10.7424 4.42076 10.7274 4.25343 10.7132 4.10034C10.7013 3.92564 10.6798 3.75173 10.6487 3.5794C10.5883 3.09369 10.4675 2.72924 10.3474 2.36479C10.1662 2.06131 9.98506 1.75782 9.74417 1.5756C9.56299 1.39269 9.3221 1.27211 9.08053 1.15018C8.77924 1.02892 8.53766 0.96795 8.35716 0.96795C8.17598 0.906983 7.99548 0.906982 7.8143 0.906982C7.33184 0.906982 6.90977 0.96795 6.54809 1.08989C6.18573 1.21114 5.94485 1.45434 5.76367 1.69685C5.56193 1.94572 5.41779 2.23604 5.34159 2.54701C5.26356 2.8505 5.22692 3.15466 5.22692 3.5794C5.22692 4.12608 5.25745 4.73372 5.31784 5.34069C5.38366 5.94834 5.41421 6.31211 5.41421 6.43405C5.41421 6.67656 5.35381 6.98072 5.23913 7.22324C5.12445 7.46643 4.91952 7.76992 4.60602 8.13437L4.15342 8.68105C3.79174 9.10579 3.56238 9.53121 3.46603 9.95595C3.34524 10.4417 3.23667 10.8061 3.13421 11.0493C3.04599 11.2729 2.92656 11.4957 2.77184 11.785L2.73045 11.8629L2.51942 12.2456C2.30227 12.6521 2.19981 12.9623 2.19981 13.1805C2.1876 13.217 2.18759 13.278 2.18759 13.3451C2.18759 13.442 2.21202 13.5212 2.2602 13.5822C2.22316 13.6251 2.19085 13.6719 2.16384 13.7217C2.15068 13.7557 2.13846 13.79 2.1272 13.8247C2.12019 13.8405 2.1143 13.8568 2.10956 13.8735C2.10074 13.9006 2.08988 13.9358 2.07291 13.9764C2.05324 14.0374 2.02474 14.1011 1.99149 14.177L1.97044 14.2257C1.84355 14.2982 1.75942 14.3287 1.70513 14.3287H1.01163C0.879306 14.3287 0.752415 14.408 0.619415 14.559C0.487094 14.7114 0.426704 14.9241 0.426704 15.191C0.426704 15.2757 0.451127 15.4762 0.499306 15.7919C0.547484 16.1144 0.571236 16.2966 0.571236 16.3569C0.571236 16.4179 0.559021 16.4788 0.547485 16.5398C0.535271 16.6062 0.510849 16.6604 0.487099 16.7159C0.46267 16.7762 0.438918 16.8311 0.402275 16.8853C0.378525 16.9462 0.342562 17.0072 0.299812 17.0736C0.257741 17.1346 0.215665 17.201 0.176987 17.268C0.136272 17.3784 0.115234 17.4828 0.115234 17.5796C0.115234 17.6758 0.156632 17.7625 0.239418 17.8391C0.330347 17.915 0.451126 17.9773 0.601768 18.0254C0.758519 18.0809 0.903053 18.1222 1.02995 18.15C1.16837 18.1771 1.32513 18.2056 1.49409 18.2333C1.66917 18.2604 1.77773 18.2814 1.82591 18.2957C2.31448 18.4061 2.87499 18.5734 3.50809 18.7922C4.13577 19.0225 4.59991 19.1384 4.89509 19.1384C5.36602 19.1384 5.70327 18.95 6.00523 18.5856V18.6039Z" />
</svg>
